<svg width="36" height="23" viewBox="0 0 36 23" fill="none" xmlns="http://www.w3.org/2000/svg">
<path d="M10.441 0C11.5007 0 12.4543 0.0917613 13.3287 0.278881C14.1977 0.464203 14.939 0.770072 15.5652 1.19289C16.1823 1.61571 16.6645 2.17707 17.0117 2.88237C17.3482 3.57868 17.5155 4.4495 17.5155 5.47866C17.5155 6.59419 17.2636 7.52619 16.7581 8.26927C16.2489 9.01416 15.4986 9.6241 14.4982 10.0955C15.8602 10.4895 16.8696 11.1786 17.5389 12.1574C18.2118 13.1452 18.5411 14.3273 18.5411 15.7127C18.5411 16.8372 18.327 17.8034 17.897 18.6149C17.4826 19.4142 16.8814 20.1018 16.1445 20.6192C15.3812 21.1507 14.5286 21.5408 13.6274 21.7707C12.6825 22.0188 11.7094 22.1433 10.7324 22.1414H0V0H10.441ZM9.80942 8.94579C10.6731 8.94579 11.3891 8.74067 11.9541 8.32505C12.5155 7.91483 12.7872 7.23832 12.7872 6.31171C12.7872 5.79713 12.6954 5.37251 12.5155 5.03965C12.3402 4.71942 12.0807 4.45315 11.7652 4.26958C11.4349 4.07369 11.0704 3.94242 10.691 3.88275C10.2776 3.80563 9.85757 3.76887 9.43698 3.77299H4.87592V8.94579H9.80942ZM10.0811 18.372C10.5615 18.372 11.0185 18.3306 11.4485 18.2334C11.8821 18.1399 12.2672 17.9887 12.5946 17.7638C12.9221 17.5479 13.192 17.2546 13.3863 16.8804C13.5824 16.5098 13.6778 16.0258 13.6778 15.4446C13.6778 14.3039 13.3557 13.4924 12.7188 13.0013C12.0801 12.5155 11.2236 12.2744 10.1747 12.2744H4.87592V18.3738H10.0811V18.372ZM25.4915 18.2982C26.1519 18.9423 27.1037 19.2662 28.3415 19.2662C29.2285 19.2662 29.995 19.0413 30.6409 18.5951C31.2779 18.1471 31.6665 17.6685 31.8158 17.1737H35.6932C35.0707 19.1025 34.1261 20.4807 32.8342 21.3101C31.5586 22.1432 30.0058 22.557 28.1922 22.557C26.9291 22.557 25.792 22.3537 24.7736 21.9506C23.7962 21.57 22.9128 20.9819 22.1845 20.227C21.4683 19.4544 20.9145 18.5458 20.5562 17.5551C20.1624 16.4596 19.9674 15.3025 19.9805 14.1384C19.9805 12.9401 20.1802 11.8192 20.5724 10.7846C20.9448 9.78456 21.5165 8.87064 22.2529 8.09835C22.9816 7.34267 23.8452 6.74712 24.851 6.30991C25.9086 5.8651 27.0467 5.64336 28.194 5.65859C29.5506 5.65859 30.7363 5.92128 31.7547 6.45025C32.7422 6.9552 33.5985 7.68335 34.2556 8.57694C34.9087 9.46397 35.3747 10.4805 35.6644 11.6194C35.9541 12.7566 36.0548 13.9441 35.9721 15.1873H24.4012C24.403 16.454 24.8294 17.6541 25.4915 18.2982ZM30.551 9.87599C30.0274 9.29664 29.1422 8.98357 28.059 8.98357C27.3555 8.98357 26.7744 9.10052 26.3066 9.34162C25.8789 9.55766 25.4994 9.85819 25.1911 10.225C24.9203 10.5581 24.7196 10.9424 24.6009 11.355C24.4971 11.6989 24.4302 12.053 24.4012 12.4111H31.5657C31.4614 11.2884 31.0764 10.4589 30.551 9.87599ZM23.5016 1.48617H32.478V3.67223H23.5016V1.48617Z" fill="#8C8C8C"/>
</svg>
