<svg width="28" height="26" viewBox="0 0 28 26" fill="none" xmlns="http://www.w3.org/2000/svg">
<path fill-rule="evenodd" clip-rule="evenodd" d="M10.4005 8.78134H15.6001V11.1123C16.3491 9.7717 18.2699 8.56714 21.1553 8.56714C26.6867 8.56714 27.9999 11.2358 27.9999 16.1322V25.2004H22.3999V17.2473C22.3999 14.4589 21.6509 12.8864 19.7441 12.8864C17.0995 12.8864 16.0005 14.5811 16.0005 17.246V25.2004H10.4005V8.78134Z" fill="#8C8C8C"/>
<path fill-rule="evenodd" clip-rule="evenodd" d="M0.797913 24.9862H6.39791V8.56714H0.797913V24.9862Z" fill="#8C8C8C"/>
<path fill-rule="evenodd" clip-rule="evenodd" d="M7.2002 3.213C7.20041 3.63545 7.10732 4.05372 6.92634 4.4435C6.74537 4.83329 6.48011 5.18681 6.146 5.48352C5.46896 6.08911 4.55253 6.42809 3.598 6.426C2.64515 6.42543 1.73084 6.08731 1.0528 5.48478C0.719896 5.18706 0.45554 4.83314 0.274881 4.44331C0.0942221 4.05347 0.000810785 3.63538 0 3.213C0 2.35998 0.378 1.5435 1.0542 0.941221C1.73164 0.33788 2.64634 -0.000377006 3.5994 3.15333e-07C4.5542 3.15333e-07 5.4698 0.33894 6.146 0.941221C6.8208 1.5435 7.2002 2.35998 7.2002 3.213Z" fill="#8C8C8C"/>
</svg>
