<svg width="38" height="39" viewBox="0 0 38 39" fill="none" xmlns="http://www.w3.org/2000/svg">
<path fill-rule="evenodd" clip-rule="evenodd" d="M0 19C0 8.50659 8.50659 0 19 0C29.4934 0 38 8.50659 38 19C38 29.4934 29.4934 38 19 38C16.9167 38 14.9099 37.6643 13.0319 37.0435L7.31623 38.9487C7.01128 39.0503 6.67606 38.9992 6.41529 38.8112C6.15452 38.6233 6 38.3214 6 38V32.8565C2.30824 29.3916 0 24.4647 0 19ZM24.5533 23.0753L29.8534 15.2364C30.378 14.4643 29.3831 13.625 28.6234 14.1789L22.9072 18.2075C22.7194 18.3383 22.4909 18.4089 22.256 18.4089C22.0212 18.4089 21.7927 18.3383 21.6048 18.2075L17.372 15.2532C16.1057 14.3804 14.2968 14.6993 13.4467 15.9247L8.14656 23.7636C7.62197 24.5357 8.61687 25.375 9.37661 24.8211L15.0928 20.7925C15.2806 20.6617 15.5091 20.5911 15.744 20.5911C15.9788 20.5911 16.2073 20.6617 16.3952 20.7925L20.628 23.6964C21.8942 24.6196 23.7032 24.3007 24.5533 23.0753Z" fill="#8C8C8C"/>
</svg>
